<svg xmlns="http://www.w3.org/2000/svg" width="200" height="200" viewBox="0 0 200 200" role="img" aria-labelledby="title desc">
  <title id="title">GEPA Framework</title>
  <desc id="desc">Hexagonal optimizer framework mark with candidate lattice and evaluation signal.</desc>
  <defs>
    <linearGradient id="gf-shell" x1="30" y1="22" x2="170" y2="178" gradientUnits="userSpaceOnUse">
      <stop offset="0" stop-color="#22c55e"/>
      <stop offset="0.5" stop-color="#0ea5e9"/>
      <stop offset="1" stop-color="#6366f1"/>
    </linearGradient>
    <linearGradient id="gf-fill" x1="55" y1="34" x2="148" y2="170" gradientUnits="userSpaceOnUse">
      <stop offset="0" stop-color="#ecfeff"/>
      <stop offset="0.28" stop-color="#ccfbf1"/>
      <stop offset="1" stop-color="#052e2b"/>
    </linearGradient>
    <filter id="gf-shadow" x="-20%" y="-20%" width="140%" height="140%">
      <feDropShadow dx="0" dy="6" stdDeviation="4" flood-color="#020617" flood-opacity=".45"/>
    </filter>
    <clipPath id="gf-clip">
      <path d="M100 9 178.8 54.5v91L100 191l-78.8-45.5v-91Z"/>
    </clipPath>
    <pattern id="gf-grid" width="16" height="16" patternUnits="userSpaceOnUse">
      <path d="M16 0H0v16" fill="none" stroke="#f8fafc" stroke-width=".7" opacity=".16"/>
    </pattern>
  </defs>
  <path d="M100 9 178.8 54.5v91L100 191l-78.8-45.5v-91Z" fill="url(#gf-fill)" stroke="url(#gf-shell)" stroke-width="7" stroke-linejoin="round" filter="url(#gf-shadow)"/>
  <g clip-path="url(#gf-clip)">
    <rect x="18" y="22" width="164" height="156" fill="url(#gf-grid)"/>
    <path d="M43 139c21-37 43-55 66-54 20 1 34 16 49 46" fill="none" stroke="#f8fafc" stroke-width="3" opacity=".66"/>
    <path d="M43 139c18-7 32-9 45-5 13 4 23 13 36 14 12 1 22-6 34-17" fill="none" stroke="#2dd4bf" stroke-width="4.5" stroke-linecap="round"/>
    <g stroke="#0f172a" stroke-width="3.2">
      <circle cx="49" cy="139" r="9" fill="#bbf7d0"/>
      <circle cx="75" cy="103" r="9" fill="#a7f3d0"/>
      <circle cx="108" cy="86" r="11" fill="#f8fafc"/>
      <circle cx="140" cy="111" r="9" fill="#bae6fd"/>
      <circle cx="154" cy="132" r="9" fill="#c4b5fd"/>
    </g>
    <g fill="none" stroke-linecap="round" stroke-linejoin="round">
      <path d="M75 103 108 86l32 25 14 21" stroke="#0f172a" stroke-width="2.4" opacity=".78"/>
      <path d="M49 139 75 103" stroke="#0f172a" stroke-width="2.4" opacity=".78"/>
      <path d="M67 151h62" stroke="#f8fafc" stroke-width="5"/>
      <path d="M67 151h33" stroke="#22c55e" stroke-width="5"/>
      <path d="M132 61h20M142 51v20" stroke="#f8fafc" stroke-width="3" opacity=".78"/>
      <path d="M48 60h45" stroke="#f8fafc" stroke-width="2.6" opacity=".54"/>
      <path d="M48 72h32" stroke="#f8fafc" stroke-width="2.6" opacity=".36"/>
    </g>
    <path d="M100 37 116 65H84Z" fill="#0f172a" opacity=".86"/>
    <path d="M100 44 108 60H92Z" fill="#34d399"/>
  </g>
</svg>
